<?xml version="1.0" encoding="UTF-8" standalone="no"?>
<svg
   version="1.1"
   viewBox="780 1100 1520 1642.189"
   style="clip-rule:evenodd;fill-rule:evenodd;image-rendering:optimizeQuality;shape-rendering:geometricPrecision;text-rendering:geometricPrecision"
   id="svg193"
   xmlns="http://www.w3.org/2000/svg">
  <defs
     id="defs197" />
  <g
     id="g135"
     transform="translate(-19,-27.578125)">
    <path
       style="opacity:1"
       fill="#000000"
       d="m 1585.5,1136 417.5,239.5 -107.5,72.5 -323,-187 c -11.9391,-6.9121 -28.6836,-6.237 -41,0 -189.6058,96.0169 -383.0809,221.9887 -545,316 -26.90687,15.6223 -46.87156,53.3453 -46.80054,84.3259 l 1.37598,600.1731 c 0.0532,23.2234 8.37842,35.4876 27.42456,48.501 l 110.5,75.5 c -20.46,28.07 -41.29,55.9 -62.5,83.5 -2.33,0.67 -4.67,0.67 -7,0 -43.727,-24.71 -87.42563,-49.6571 -129,-78 -34.61249,-23.5967 -61.5,-56.8478 -61.5,-98.5 v -695 c 0,-42.3655 28.55686,-77.1181 65.5,-98.5 l 622,-360 c 26.3501,-15.2509 59.5241,-14.1724 79,-3 z"
       id="path133" />
  </g>
  <path
     fill="#000000"
     d="m 2281.0217,1189.298 c -168.1487,110.39 -318.862,216.5768 -462.5,316.4974 73.3662,16.3301 111.5263,53.6158 144.1318,108.7681 z"
     id="path137"
     style="stroke-width:0.929542" />
  <g
     id="g143"
     transform="translate(-19,-27.578125)">
    <path
       style="opacity:1"
       fill="#000000"
       d="M 2160.1343,1495.6684 C 2287.2818,1562.6669 2299.6831,1583.7586 2300,1700 l 0.092,563.9707 c 0.016,96.5441 -37.5023,128.5739 -65.5922,146.9901 -139.1103,91.2032 -292.916,150.1063 -417,222.0392 -70.2636,38.7418 -137.3817,82.3414 -201.8093,115.911 -36.7564,19.1517 -60.6255,29.5635 -91.2407,11.4903 l -355.0789,-209.6154 94.3774,-69.4159 c 0,0 178.501,101.7533 267.7515,152.63 16.4196,9.3599 26.8122,10.0956 46,0 l 576.8005,-320.0675 c 28.9216,-17.7654 25.6973,-51.9385 25.6973,-59.9961 L 2180,1740 c -0.7905,-118.8562 -8.3607,-106.175 -89.8147,-157.8615 z"
       id="path141" />
  </g>
  <path
     fill="#000000"
     d="m 1745.2501,1552.9961 c 230,30 295.7499,439.4258 -53.4212,475.4292 l 243.4212,284.5708 h -200 L 1381,1892.4219 l 334.6837,0.1921 c 109.5665,0.063 106.5581,-195.3051 -1.3514,-195.3681 -148.9869,-0.087 -479.0822,-4.2498 -479.0822,-4.2498 L 1114.6245,1553.056 c 215.4979,-0.019 437.6937,-0.042 630.6256,-0.06 z"
     id="path145"
     style="clip-rule:evenodd;fill:#000000;fill-opacity:1;fill-rule:evenodd;stroke-width:0.999999;image-rendering:optimizeQuality;shape-rendering:geometricPrecision;text-rendering:geometricPrecision" />
  <path
     id="path189"
     d="m 1532.881,2190.6079 -712.54433,539.1071 494.86163,-633.9283 -242.3173,34.8212 237.515,-206.8475 z"
     style="fill:#000000;fill-opacity:1" />
  <path
     id="rect68747"
     style="fill:#000000;stroke-width:0.676853"
     d="m 1506,1752.4219 169.6563,0.1709 c 46.6126,0.047 47.031,82.6039 2.5947,82.2206 L 1401,1832.4219 Z" />
</svg>
