<?xml version="1.0" encoding="UTF-8" standalone="no"?>
<svg
   version="1.1"
   viewBox="800 1100 2910 525.26501"
   style="clip-rule:evenodd;fill-rule:evenodd;image-rendering:optimizeQuality;shape-rendering:geometricPrecision;text-rendering:geometricPrecision"
   id="svg193"
   sodipodi:docname="text_dark.svg"
   inkscape:version="1.4.2 (ebf0e94, 2025-05-08)"
   width="2910"
   height="525.26501"
   xmlns:inkscape="http://www.inkscape.org/namespaces/inkscape"
   xmlns:sodipodi="http://sodipodi.sourceforge.net/DTD/sodipodi-0.dtd"
   xmlns="http://www.w3.org/2000/svg"
   xmlns:svg="http://www.w3.org/2000/svg">
  <defs
     id="defs197">
    <inkscape:path-effect
       effect="fillet_chamfer"
       id="path-effect47"
       is_visible="true"
       lpeversion="1"
       nodesatellites_param=""
       radius="40"
       unit="px"
       method="auto"
       mode="F"
       chamfer_steps="1"
       flexible="false"
       use_knot_distance="true"
       apply_no_radius="true"
       apply_with_radius="true"
       only_selected="false"
       hide_knots="false"
       satellites_param="" />
    <inkscape:path-effect
       effect="fillet_chamfer"
       id="path-effect46"
       is_visible="true"
       lpeversion="1"
       nodesatellites_param=""
       radius="80"
       unit="px"
       method="auto"
       mode="F"
       chamfer_steps="1"
       flexible="false"
       use_knot_distance="true"
       apply_no_radius="true"
       apply_with_radius="true"
       only_selected="false"
       hide_knots="false"
       satellites_param="" />
    <inkscape:path-effect
       effect="fillet_chamfer"
       id="path-effect11"
       is_visible="true"
       lpeversion="1"
       nodesatellites_param=""
       radius="40"
       unit="px"
       method="auto"
       mode="F"
       chamfer_steps="1"
       flexible="false"
       use_knot_distance="true"
       apply_no_radius="true"
       apply_with_radius="true"
       only_selected="false"
       hide_knots="false"
       satellites_param="" />
    <inkscape:path-effect
       effect="fillet_chamfer"
       id="path-effect10"
       is_visible="true"
       lpeversion="1"
       nodesatellites_param=""
       radius="80"
       unit="px"
       method="auto"
       mode="F"
       chamfer_steps="1"
       flexible="false"
       use_knot_distance="true"
       apply_no_radius="true"
       apply_with_radius="true"
       only_selected="false"
       hide_knots="false"
       satellites_param="" />
    <inkscape:path-effect
       effect="fillet_chamfer"
       id="path-effect9"
       is_visible="true"
       lpeversion="1"
       nodesatellites_param=""
       radius="80"
       unit="px"
       method="auto"
       mode="F"
       chamfer_steps="1"
       flexible="false"
       use_knot_distance="true"
       apply_no_radius="true"
       apply_with_radius="true"
       only_selected="false"
       hide_knots="false"
       satellites_param="" />
    <inkscape:path-effect
       effect="fillet_chamfer"
       id="path-effect8"
       is_visible="true"
       lpeversion="1"
       nodesatellites_param=""
       radius="80"
       unit="px"
       method="auto"
       mode="F"
       chamfer_steps="1"
       flexible="false"
       use_knot_distance="true"
       apply_no_radius="true"
       apply_with_radius="true"
       only_selected="false"
       hide_knots="false"
       satellites_param="" />
    <inkscape:path-effect
       effect="fillet_chamfer"
       id="path-effect6"
       is_visible="true"
       lpeversion="1"
       nodesatellites_param=""
       radius="80"
       unit="px"
       method="auto"
       mode="F"
       chamfer_steps="1"
       flexible="false"
       use_knot_distance="true"
       apply_no_radius="true"
       apply_with_radius="true"
       only_selected="false"
       hide_knots="false"
       satellites_param="" />
    <inkscape:path-effect
       effect="fillet_chamfer"
       id="path-effect5"
       is_visible="true"
       lpeversion="1"
       nodesatellites_param=""
       radius="80"
       unit="px"
       method="auto"
       mode="F"
       chamfer_steps="1"
       flexible="false"
       use_knot_distance="true"
       apply_no_radius="true"
       apply_with_radius="true"
       only_selected="false"
       hide_knots="false"
       satellites_param="" />
    <inkscape:path-effect
       effect="fillet_chamfer"
       id="path-effect4"
       is_visible="true"
       lpeversion="1"
       nodesatellites_param=""
       radius="80"
       unit="px"
       method="auto"
       mode="F"
       chamfer_steps="1"
       flexible="false"
       use_knot_distance="true"
       apply_no_radius="true"
       apply_with_radius="true"
       only_selected="false"
       hide_knots="false"
       satellites_param="" />
    <inkscape:path-effect
       effect="fillet_chamfer"
       id="path-effect2"
       is_visible="true"
       lpeversion="1"
       nodesatellites_param=""
       radius="80"
       unit="px"
       method="auto"
       mode="F"
       chamfer_steps="1"
       flexible="false"
       use_knot_distance="true"
       apply_no_radius="true"
       apply_with_radius="true"
       only_selected="false"
       hide_knots="false"
       satellites_param="" />
  </defs>
  <sodipodi:namedview
     id="namedview195"
     pagecolor="#ffffff"
     bordercolor="#666666"
     borderopacity="1.0"
     inkscape:pageshadow="2"
     inkscape:pageopacity="0.0"
     inkscape:pagecheckerboard="0"
     showgrid="true"
     inkscape:object-paths="false"
     inkscape:zoom="0.1767767"
     inkscape:cx="1060.6601"
     inkscape:cy="82.024384"
     inkscape:window-width="1920"
     inkscape:window-height="1048"
     inkscape:window-x="1280"
     inkscape:window-y="-5"
     inkscape:window-maximized="1"
     inkscape:current-layer="svg193"
     fit-margin-top="0"
     fit-margin-left="0"
     fit-margin-right="0"
     fit-margin-bottom="0"
     inkscape:snap-bbox="true"
     inkscape:snap-global="true"
     inkscape:snap-nodes="true"
     inkscape:bbox-paths="false"
     inkscape:bbox-nodes="false"
     inkscape:snap-bbox-edge-midpoints="false"
     inkscape:snap-bbox-midpoints="false"
     inkscape:snap-intersection-paths="false"
     inkscape:snap-midpoints="true"
     inkscape:snap-object-midpoints="false"
     inkscape:snap-page="false"
     inkscape:snap-grids="true"
     inkscape:snap-others="false"
     inkscape:object-nodes="true"
     inkscape:snap-to-guides="false"
     inkscape:showpageshadow="2"
     inkscape:deskcolor="#d1d1d1">
    <inkscape:grid
       type="xygrid"
       id="grid85562"
       originx="-1776"
       originy="1182.6332"
       dotted="false"
       snapvisiblegridlinesonly="true"
       spacingy="1"
       spacingx="1"
       units="px" />
  </sodipodi:namedview>
  <g
     id="g1"
     style="clip-rule:evenodd;fill-rule:evenodd;image-rendering:optimizeQuality;shape-rendering:geometricPrecision;text-rendering:geometricPrecision"
     transform="translate(-1636.0038,-504.95989)">
    <path
       fill="#f8d8c1"
       d="m 3696.0037,1605.0924 c 80,0 125,40 125,120 v 285 c 0,80 -45,120 -125,120 -80,0 -125,-40 -125,-120 v -285 c 0,-80 45,-120 125,-120 z m 45,120 v 285 c 0,30 -15,40 -45,40 -30,0 -45,-10 -45,-40 v -285 c 0,-30 15.0025,-39.9752 45,-40 30,0 45,10 45,40 z"
       id="path149"
       sodipodi:nodetypes="cccccccccccccc" />
    <path
       fill="#f8d8c1"
       d="m 4446.0037,1725.0924 v 40 h -80 v -40 c 0,-30 -15,-40 -45,-40 -30,0 -45,10 -45,40 v 285 c 0,30 15,40 45,40 30,0 45,-10 45,-40 v -45 h 80 v 45 c 0,80 -50,120 -130,120 -80,0 -120,-40 -120,-120 -0.67,-106.67 -0.67,-178.33 0,-285 0,-80 45,-120 125,-120 80,0 125,40 125,120 z"
       id="path153"
       sodipodi:nodetypes="ccccccccccccccccc" />
    <path
       fill="#f8d8c1"
       d="m 2815.4027,1605.2249 c 36,-0.17 64,-0.5 100,0 l 95,525 h -80 l -20,-110 h -95 l -20,110 h -80 z m 47.5,150.25 37.5,184.75 h -75 z"
       id="path161"
       sodipodi:nodetypes="ccccccccccccc" />
    <path
       fill="#f8d8c1"
       d="m 3016.6047,1605.0924 h 80 l 61.3536,189.9668 53.6464,-189.9668 h 80 l -94.6464,319.9668 -0.3536,205.0332 h -80 v -205 z"
       id="path165"
       sodipodi:nodetypes="cccccccccc" />
    <path
       fill="#f8d8c1"
       d="m 3331.0037,1605.0924 h 200 v 80 h -115 v 150 h 105 v 80 h -105 v 215 h -80 z"
       id="path169"
       sodipodi:nodetypes="ccccccccccc" />
    <path
       fill="#f8d8c1"
       d="m 4516.0037,1605.0924 h 210 v 80 h -130 v 140 h 115 v 80 h -115 v 145 h 130 v 80 h -210 z"
       id="path177"
       sodipodi:nodetypes="ccccccccccccc" />
    <path
       fill="#e9a033"
       d="m 4786.0037,1605.092 h 125 c 80,0 125,40 125,120 v 285 c 0,80 -37.4591,120.1995 -125,120 h -125 z m 125,80 c 30,0 45,10 45,40 v 285 c 0,30 -15,40 -45,40 h -45 v -365 z"
       id="path181"
       sodipodi:nodetypes="cccccccccccccc" />
    <path
       fill="#e9a033"
       d="m 5221.0037,1605.0924 c 80,0 125,40 125,120 v 60 c 0,80 -65,80 -75,80 0,0 75,0 75,80 v 60 c 0,80 -45,125 -125,125 h -125 v -525 z m -45,80 h 45 c 30,0 45,10 45,40 v 60 c 0,30 -15,40 -45,40 l -45,-0.032 z m 45,220 c 30,0 45,10 45,40 v 60 c 0,30 -15,40 -45,40 l -45,-0.032 0.014,-140.1817 z"
       id="path185"
       sodipodi:nodetypes="ccccccccccccccccccccccsc" />
    <path
       style="clip-rule:evenodd;fill-rule:evenodd;image-rendering:optimizeQuality;shape-rendering:geometricPrecision;text-rendering:geometricPrecision"
       fill="#f8d8c1"
       d="m 2576.0038,1605.0925 c 70,0 110,50 110,120 v 85 c 0,70 -10,100 -40,120 l 50,200 h -80 l -50,-200 h -50 v 200 h -80 v -525 z m -10,80 c 25,0 40,14.9999 40,40 v 85 c 0,25 -15,40 -40,40 h -50 v -165 z"
       id="path173-7"
       sodipodi:nodetypes="ccccccccccccccccccc" />
    <path
       style="clip-rule:evenodd;fill-rule:evenodd;image-rendering:optimizeQuality;shape-rendering:geometricPrecision;text-rendering:geometricPrecision"
       fill="#f8d8c1"
       d="m 4026.0038,1605.0925 c 69.9999,0 109.9999,50 109.9999,120 v 85 c 0,70 -10,100 -40,120 l 50,200 h -80 l -49.9999,-200 h -50 v 200 h -80 v -525 z m -10,80 c 25,0 39.9999,14.9999 39.9999,40 v 85 c 0,25 -14.9999,40 -39.9999,40 h -50 v -165 z"
       id="path173-7-6"
       sodipodi:nodetypes="ccccccccccccccccccc" />
  </g>
</svg>
